<svg xmlns="http://www.w3.org/2000/svg" viewBox="0 0 64 64" width="64" height="64" role="img" aria-label="Apex Scanner">
  <defs>
    <linearGradient id="fL" x1="14" y1="10" x2="30" y2="55" gradientUnits="userSpaceOnUse"><stop offset="0" stop-color="#6FB0FF"></stop><stop offset="1" stop-color="#3C7DF5"></stop></linearGradient>
    <linearGradient id="fR" x1="34" y1="12" x2="52" y2="56" gradientUnits="userSpaceOnUse"><stop offset="0" stop-color="#6168F2"></stop><stop offset="1" stop-color="#7C5CF0"></stop></linearGradient>
    <linearGradient id="sc" x1="24" y1="42" x2="40" y2="42" gradientUnits="userSpaceOnUse"><stop offset="0" stop-color="#36E2FF" stop-opacity=".5"></stop><stop offset=".5" stop-color="#7DF0FF"></stop><stop offset="1" stop-color="#36E2FF" stop-opacity=".5"></stop></linearGradient>
    <clipPath id="sil"><path d="M32 8.5 L11 55 L24 55 L32 24 L40 55 L53 55 Z"></path></clipPath>
  </defs>
  <path d="M32 8.5 L11 55 L24 55 L32 24 Z" fill="url(#fL)"></path>
  <path d="M32 8.5 L32 24 L40 55 L53 55 Z" fill="url(#fR)"></path>
  <g clip-path="url(#sil)"><path d="M32 8.5 L11 55 L32 40 Z" fill="#fff" opacity="0.10"></path></g>
  <path d="M32 9 L32 24" stroke="#fff" stroke-opacity="0.35" stroke-width="0.8"></path>
  <rect x="24.5" y="40" width="15" height="6" rx="3" fill="#36E2FF" opacity="0.22"></rect>
  <rect x="25" y="41.4" width="14" height="3.1" rx="1.55" fill="url(#sc)"></rect>
  <circle cx="32" cy="13" r="3.4" fill="#0B0E18"></circle>
  <circle cx="32" cy="13" r="2.1" fill="#EAF4FF"></circle>
</svg>